<?xml version="1.0" standalone="no"?>
<!DOCTYPE svg PUBLIC "-//W3C//DTD SVG 20010904//EN"
 "http://www.w3.org/TR/2001/REC-SVG-20010904/DTD/svg10.dtd">
<svg version="1.0" xmlns="http://www.w3.org/2000/svg"
 width="270.000000pt" height="270.000000pt" viewBox="0 0 270.000000 270.000000"
 preserveAspectRatio="xMidYMid meet">
<metadata>
Created by potrace 1.14, written by Peter Selinger 2001-2017
</metadata>
<g transform="translate(0.000000,270.000000) scale(0.100000,-0.100000)"
fill="#000000" stroke="none">
<path d="M1218 2695 c-3 -3 -65 -13 -118 -20 -132 -16 -349 -106 -502 -207
-246 -164 -455 -445 -536 -723 -47 -158 -57 -227 -56 -400 0 -165 10 -239 51
-375 134 -452 474 -788 931 -921 129 -37 226 -48 397 -44 161 4 173 5 311 40
514 130 913 579 992 1115 9 60 9 311 0 380 -47 361 -271 718 -578 924 -156
104 -368 192 -515 212 -16 3 -41 7 -55 11 -25 6 -316 14 -322 8z"/>
</g>
</svg>
